<?xml version="1.0" encoding="UTF-8"?>
<svg width="700pt" height="700pt" version="1.1" viewBox="0 0 700 700" xmlns="http://www.w3.org/2000/svg">
 <path d="m222.56 37.734c-31.035 0-57.133 21.375-64.977 50.039h-35c-4.6641-0.019532-9.1445 1.8281-12.445 5.125-3.2969 3.3008-5.1406 7.7773-5.125 12.441 0.019531 4.6445 1.8789 9.0859 5.1758 12.355 3.293 3.2695 7.7539 5.0977 12.395 5.0781h34.934c7.7891 28.742 33.949 50.211 65.043 50.211 30.781 0 56.723-21.051 64.805-49.355l290.15-0.85547h-0.003906c4.6445-0.007813 9.0898-1.8633 12.367-5.1484 3.2734-3.2891 5.1094-7.7461 5.1016-12.387-0.011719-4.6289-1.8516-9.0664-5.125-12.34-3.2773-3.2734-7.7109-5.1172-12.344-5.125l-289.67 0.85547c-7.5391-29.105-33.93-50.895-65.281-50.895zm0 35c18.234 0 32.641 14.375 32.641 32.605 0 18.234-14.406 32.641-32.641 32.641s-32.605-14.406-32.605-32.641 14.371-32.605 32.605-32.605zm186.96 134.12c-31.551 0-58.102 21.754-65.934 50.926h-221.01c-4.6484-0.015625-9.1133 1.8164-12.406 5.0898-3.2969 3.2773-5.1523 7.7305-5.1641 12.379-0.007813 4.6562 1.8398 9.1289 5.1406 12.418 3.2969 3.293 7.7695 5.1328 12.43 5.1133h221.04c7.8555 29.164 34.375 50.961 65.898 50.961 31.523 0 58.043-21.797 65.898-50.961h102.09c4.6445-0.007812 9.0898-1.8594 12.367-5.1484 3.2734-3.2891 5.1094-7.7422 5.1016-12.383-0.011719-4.6289-1.8516-9.0664-5.125-12.34-3.2773-3.2734-7.7109-5.1172-12.344-5.1289h-102.06c-7.832-29.172-34.383-50.926-65.934-50.926zm0 35c18.703 0 33.496 14.691 33.496 33.395s-14.793 33.496-33.496 33.496-33.496-14.793-33.496-33.496 14.793-33.395 33.496-33.395zm-136 143.42c-31.512 0-58.066 21.777-65.934 50.926h-85.008c-4.6641-0.015625-9.1445 1.8281-12.445 5.1289-3.2969 3.2969-5.1406 7.7773-5.125 12.441 0.019531 4.6406 1.8789 9.0859 5.1758 12.355 3.293 3.2695 7.7539 5.0938 12.395 5.0742h84.973c7.8164 29.223 34.402 51.066 65.965 51.066 31.566 0 58.117-21.844 65.934-51.066h238.06c4.625-0.007813 9.0586-1.8438 12.328-5.1133 3.2734-3.2656 5.1211-7.6914 5.1406-12.316 0.015625-4.6484-1.8125-9.1094-5.0898-12.406-3.2773-3.2969-7.7305-5.1523-12.379-5.1641h-238.09c-7.8672-29.145-34.387-50.926-65.898-50.926zm0 35c18.703 0 33.496 14.793 33.496 33.496s-14.793 33.496-33.496 33.496-33.496-14.793-33.496-33.496 14.793-33.496 33.496-33.496z"/>
</svg>
